<svg width="863" height="850" viewBox="0 0 863 850" fill="none" xmlns="http://www.w3.org/2000/svg">
<path d="M863 691.379H-41V691.831H863V691.379Z" fill="#EBEBEB"/>
<path d="M387.496 610.742H38.3893C35.6545 610.738 33.0332 609.648 31.1011 607.712C29.1689 605.777 28.0837 603.154 28.0837 600.419V109.673C28.1075 106.954 29.2032 104.354 31.1328 102.438C33.0624 100.522 35.6701 99.4447 38.3893 99.4401H387.496C390.234 99.4401 392.86 100.528 394.796 102.464C396.732 104.4 397.82 107.026 397.82 109.764V600.419C397.82 603.157 396.732 605.783 394.796 607.719C392.86 609.655 390.234 610.742 387.496 610.742ZM38.3893 99.8017C35.7743 99.8065 33.2681 100.849 31.4207 102.699C29.5733 104.55 28.5357 107.058 28.5357 109.673V600.419C28.5357 603.034 29.5733 605.542 31.4207 607.393C33.2681 609.243 35.7743 610.286 38.3893 610.29H387.496C390.113 610.286 392.621 609.244 394.471 607.394C396.321 605.544 397.363 603.035 397.368 600.419V109.673C397.363 107.057 396.321 104.549 394.471 102.698C392.621 100.848 390.113 99.8064 387.496 99.8017H38.3893Z" fill="#EBEBEB"/>
<path d="M778.584 610.742H429.46C426.723 610.738 424.1 609.648 422.165 607.713C420.23 605.778 419.141 603.155 419.136 600.419V109.673C419.165 106.953 420.264 104.353 422.197 102.437C424.129 100.521 426.739 99.4447 429.46 99.4401H778.584C781.301 99.4495 783.904 100.529 785.829 102.444C787.755 104.36 788.848 106.957 788.872 109.673V600.419C788.872 603.151 787.789 605.771 785.861 607.706C783.933 609.641 781.316 610.733 778.584 610.742ZM429.46 99.8017C426.843 99.8064 424.335 100.848 422.485 102.698C420.634 104.549 419.593 107.057 419.588 109.673V600.419C419.593 603.035 420.634 605.544 422.485 607.394C424.335 609.244 426.843 610.286 429.46 610.29H778.584C781.201 610.286 783.709 609.244 785.56 607.394C787.41 605.544 788.451 603.035 788.456 600.419V109.673C788.451 107.057 787.41 104.549 785.56 102.698C783.709 100.848 781.201 99.8064 778.584 99.8017H429.46Z" fill="#EBEBEB"/>
<path d="M321.395 708.591H274.387V709.043H321.395V708.591Z" fill="#EBEBEB"/>
<path d="M151.66 703.692H53.8477V704.144H151.66V703.692Z" fill="#EBEBEB"/>
<path d="M272.579 725.388H224.993V725.84H272.579V725.388Z" fill="#EBEBEB"/>
<path d="M496.085 722.35H425.88V722.802H496.085V722.35Z" fill="#EBEBEB"/>
<path d="M531.503 722.35H512.176V722.802H531.503V722.35Z" fill="#EBEBEB"/>
<path d="M772.437 714.721H673.793V715.173H772.437V714.721Z" fill="#EBEBEB"/>
<path d="M168.077 286.875H301.869C304.588 286.875 307.195 287.955 309.118 289.878C311.04 291.8 312.12 294.408 312.12 297.127V691.379H157.88V297.109C157.885 294.402 158.959 291.808 160.87 289.891C162.78 287.974 165.371 286.89 168.077 286.875Z" fill="#F5F5F5"/>
<path d="M190.533 310.777H170.645V355.055H190.533V310.777Z" fill="#EBEBEB"/>
<path d="M299.302 310.777H279.414V355.055H299.302V310.777Z" fill="#EBEBEB"/>
<path d="M226.783 310.777H206.895V355.055H226.783V310.777Z" fill="#EBEBEB"/>
<path d="M263.051 310.777H243.163V355.055H263.051V310.777Z" fill="#EBEBEB"/>
<path d="M190.533 380.674H170.645V424.952H190.533V380.674Z" fill="#EBEBEB"/>
<path d="M299.302 380.674H279.414V424.952H299.302V380.674Z" fill="#EBEBEB"/>
<path d="M226.783 380.674H206.895V424.952H226.783V380.674Z" fill="#EBEBEB"/>
<path d="M263.051 380.674H243.163V424.952H263.051V380.674Z" fill="#EBEBEB"/>
<path d="M190.533 450.572H170.645V494.85H190.533V450.572Z" fill="#EBEBEB"/>
<path d="M299.302 450.572H279.414V494.85H299.302V450.572Z" fill="#EBEBEB"/>
<path d="M226.783 450.572H206.895V494.85H226.783V450.572Z" fill="#EBEBEB"/>
<path d="M263.051 450.572H243.163V494.85H263.051V450.572Z" fill="#EBEBEB"/>
<path d="M190.533 520.469H170.645V564.747H190.533V520.469Z" fill="#EBEBEB"/>
<path d="M299.302 520.469H279.414V564.747H299.302V520.469Z" fill="#EBEBEB"/>
<path d="M226.783 520.469H206.895V564.747H226.783V520.469Z" fill="#EBEBEB"/>
<path d="M263.051 520.469H243.163V564.747H263.051V520.469Z" fill="#EBEBEB"/>
<path d="M190.533 590.366H170.645V634.644H190.533V590.366Z" fill="#EBEBEB"/>
<path d="M299.302 590.366H279.414V634.644H299.302V590.366Z" fill="#EBEBEB"/>
<path d="M226.783 590.366H206.895V634.644H226.783V590.366Z" fill="#EBEBEB"/>
<path d="M263.051 590.366H243.163V634.644H263.051V590.366Z" fill="#EBEBEB"/>
<path d="M642.424 323.632H738.248C739.342 323.632 740.426 323.848 741.438 324.267C742.449 324.685 743.368 325.299 744.142 326.073C744.916 326.847 745.53 327.766 745.948 328.777C746.367 329.789 746.583 330.872 746.583 331.967V691.379H634.179V331.985C634.175 329.787 635.038 327.676 636.582 326.111C638.126 324.547 640.226 323.656 642.424 323.632Z" fill="#F5F5F5"/>
<path d="M666.507 345.364H648.427V385.61H666.507V345.364Z" fill="#EBEBEB"/>
<path d="M699.466 345.364H681.386V385.61H699.466V345.364Z" fill="#EBEBEB"/>
<path d="M732.426 345.364H714.346V385.61H732.426V345.364Z" fill="#EBEBEB"/>
<path d="M666.507 408.915H648.427V449.161H666.507V408.915Z" fill="#EBEBEB"/>
<path d="M699.466 408.915H681.386V449.161H699.466V408.915Z" fill="#EBEBEB"/>
<path d="M732.426 408.915H714.346V449.161H732.426V408.915Z" fill="#EBEBEB"/>
<path d="M666.507 472.467H648.427V512.713H666.507V472.467Z" fill="#EBEBEB"/>
<path d="M699.466 472.467H681.386V512.713H699.466V472.467Z" fill="#EBEBEB"/>
<path d="M732.426 472.467H714.346V512.713H732.426V472.467Z" fill="#EBEBEB"/>
<path d="M666.507 536H648.427V576.246H666.507V536Z" fill="#EBEBEB"/>
<path d="M699.466 536H681.386V576.246H699.466V536Z" fill="#EBEBEB"/>
<path d="M732.426 536H714.346V576.246H732.426V536Z" fill="#EBEBEB"/>
<path d="M666.507 599.551H648.427V639.797H666.507V599.551Z" fill="#EBEBEB"/>
<path d="M699.466 599.551H681.386V639.797H699.466V599.551Z" fill="#EBEBEB"/>
<path d="M732.426 599.551H714.346V639.797H732.426V599.551Z" fill="#EBEBEB"/>
<path d="M422.915 220.775H578.565C581.725 220.775 584.756 222.03 586.99 224.265C589.225 226.499 590.48 229.53 590.48 232.69V691.379H411V232.69C411 229.53 412.255 226.499 414.49 224.265C416.724 222.03 419.755 220.775 422.915 220.775Z" fill="#F5F5F5"/>
<path d="M449.04 248.582H425.898V300.092H449.04V248.582Z" fill="#EBEBEB"/>
<path d="M575.582 248.582H552.44V300.092H575.582V248.582Z" fill="#EBEBEB"/>
<path d="M491.221 248.582H468.079V300.092H491.221V248.582Z" fill="#EBEBEB"/>
<path d="M533.402 248.582H510.259V300.092H533.402V248.582Z" fill="#EBEBEB"/>
<path d="M449.04 329.906H425.898V381.416H449.04V329.906Z" fill="#EBEBEB"/>
<path d="M575.582 329.906H552.44V381.416H575.582V329.906Z" fill="#EBEBEB"/>
<path d="M491.221 329.906H468.079V381.416H491.221V329.906Z" fill="#EBEBEB"/>
<path d="M533.402 329.906H510.259V381.416H533.402V329.906Z" fill="#EBEBEB"/>
<path d="M449.04 411.23H425.898V462.74H449.04V411.23Z" fill="#EBEBEB"/>
<path d="M575.582 411.23H552.44V462.74H575.582V411.23Z" fill="#EBEBEB"/>
<path d="M491.221 411.23H468.079V462.74H491.221V411.23Z" fill="#EBEBEB"/>
<path d="M533.402 411.23H510.259V462.74H533.402V411.23Z" fill="#EBEBEB"/>
<path d="M449.04 492.553H425.898V544.063H449.04V492.553Z" fill="#EBEBEB"/>
<path d="M575.582 492.553H552.44V544.063H575.582V492.553Z" fill="#EBEBEB"/>
<path d="M491.221 492.553H468.079V544.063H491.221V492.553Z" fill="#EBEBEB"/>
<path d="M533.402 492.553H510.259V544.063H533.402V492.553Z" fill="#EBEBEB"/>
<path d="M449.04 573.859H425.898V625.369H449.04V573.859Z" fill="#EBEBEB"/>
<path d="M575.582 573.859H552.44V625.369H575.582V573.859Z" fill="#EBEBEB"/>
<path d="M491.221 573.859H468.079V625.369H491.221V573.859Z" fill="#EBEBEB"/>
<path d="M533.402 573.859H510.259V625.369H533.402V573.859Z" fill="#EBEBEB"/>
<path d="M411 389.317H312.121V691.379H411V389.317Z" fill="#E6E6E6"/>
<path d="M634.18 421.662H590.498V691.379H634.18V421.662Z" fill="#E6E6E6"/>
<path d="M157.826 691.379H71.2949V565.271L157.826 536V691.379Z" fill="#E6E6E6"/>
<path d="M720.168 170.639C734.325 158.833 763.126 135.799 738.357 132.508C714.563 129.344 679.506 143.266 668.315 155.488C668.315 143.79 662.8 132.653 641.791 123.649C609.464 109.764 604.456 160.225 606.156 169.482C593.156 163.244 552.114 164.402 580.41 181.993H724.037C724.037 181.993 753.688 163.461 720.168 170.639Z" fill="#F5F5F5"/>
<path d="M72.1809 231.424C72.0724 224.698 71.3492 211.536 83.2458 209.728C94.6724 207.92 102.429 215.857 101.127 222.818C106.84 216.146 114.542 209.818 127.668 204.738C147.9 196.819 125.39 225.566 120.147 230.846C128.59 227.23 145.079 227.935 124.739 237.951H65.0754C65.0754 237.951 61.8029 227.32 72.1809 231.424Z" fill="#FAFAFA"/>
<path d="M322.535 151.619H130.344C130.344 151.619 141.482 138.095 158.874 142.362C150.684 131.93 146.327 92.8228 173.736 87.9412C187.676 85.4642 204.129 110.812 204.472 124.101C211.343 92.2984 230.327 51.8896 259.472 59.8087C288.617 67.7277 266.035 125.439 266.035 125.439C266.035 125.439 294.041 84.6506 317.291 102.749C331.141 113.597 305.142 138.33 305.142 138.33C305.142 138.33 336.981 138.095 322.535 151.619Z" fill="#F5F5F5"/>
<path d="M411 773.028C604.605 773.028 761.553 763.865 761.553 752.562C761.553 741.259 604.605 732.095 411 732.095C217.395 732.095 60.4468 741.259 60.4468 752.562C60.4468 763.865 217.395 773.028 411 773.028Z" fill="#F5F5F5"/>
<path d="M317.327 614.051C307.218 614.27 297.596 618.439 290.524 625.666C283.451 632.893 279.49 642.603 279.49 652.715C279.49 662.827 283.451 672.537 290.524 679.764C297.596 686.991 307.218 691.161 317.327 691.379H325.066V614.051H317.327Z" fill="#263238"/>
<path d="M599.032 614.051C593.884 613.94 588.766 614.857 583.978 616.751C579.189 618.644 574.827 621.474 571.147 625.075C567.467 628.676 564.543 632.976 562.547 637.723C560.551 642.469 559.523 647.566 559.523 652.715C559.523 657.864 560.551 662.961 562.547 667.708C564.543 672.454 567.467 676.754 571.147 680.355C574.827 683.956 579.189 686.787 583.978 688.68C588.766 690.573 593.884 691.491 599.032 691.379H606.752V614.051H599.032Z" fill="#263238"/>
<path d="M471.387 691.361C492.736 691.361 510.042 674.055 510.042 652.706C510.042 631.357 492.736 614.051 471.387 614.051C450.039 614.051 432.732 631.357 432.732 652.706C432.732 674.055 450.039 691.361 471.387 691.361Z" fill="#263238"/>
<path d="M189.665 691.361C211.013 691.361 228.32 674.055 228.32 652.706C228.32 631.357 211.013 614.051 189.665 614.051C168.316 614.051 151.01 631.357 151.01 652.706C151.01 674.055 168.316 691.361 189.665 691.361Z" fill="#263238"/>
<path d="M513.369 447.769H366.686V634.138H513.369V447.769Z" fill="#446BE5"/>
<path opacity="0.2" d="M513.369 447.769H366.686V634.138H513.369V447.769Z" fill="black"/>
<path d="M661.432 494.114L660.056 495.286L665.895 502.14L667.271 500.967L661.432 494.114Z" fill="#446BE5"/>
<path d="M637.637 466.146L636.261 467.319L654.451 488.662L655.827 487.489L637.637 466.146Z" fill="#446BE5"/>
<path d="M513.369 634.12H695.543V553.248C695.546 547.243 693.404 541.434 689.504 536.868L632.823 470.261C626.815 463.207 619.346 457.543 610.933 453.66C602.52 449.776 593.364 447.767 584.098 447.769H513.369V634.12Z" fill="#446BE5"/>
<path d="M543.219 545.564V477.041C543.219 475.565 543.51 474.103 544.075 472.74C544.641 471.377 545.469 470.138 546.514 469.095C547.558 468.052 548.798 467.226 550.163 466.663C551.527 466.099 552.989 465.811 554.465 465.813H571.912C581.043 465.813 590.066 467.795 598.357 471.622C606.647 475.449 614.009 481.03 619.932 487.979L662.8 538.278C664.522 540.294 665.47 542.858 665.476 545.51C665.476 548.489 664.294 551.347 662.189 553.455C660.083 555.564 657.228 556.751 654.248 556.756H554.465C551.492 556.756 548.639 555.578 546.532 553.481C544.424 551.384 543.233 548.537 543.219 545.564Z" fill="white"/>
<path d="M695.543 612.098H673.051C671.835 612.098 670.64 611.78 669.585 611.176C668.53 610.571 667.651 609.702 667.035 608.653C666.42 607.604 666.089 606.413 666.075 605.197C666.062 603.981 666.366 602.783 666.958 601.72L670.755 594.922C671.356 593.831 672.237 592.92 673.309 592.284C674.38 591.648 675.602 591.31 676.848 591.306H695.543V612.098Z" fill="white"/>
<path d="M480.988 416.455H126.457V634.12H480.988V416.455Z" fill="#446BE5"/>
<path opacity="0.6" d="M480.988 416.455H126.457V634.12H480.988V416.455Z" fill="white"/>
<path opacity="0.5" d="M282.795 600.943H222.462V614.051H282.795V600.943Z" fill="#446BE5"/>
<path opacity="0.5" d="M143.018 600.943H126.457V614.051H143.018V600.943Z" fill="#446BE5"/>
<path opacity="0.4" d="M248.931 416.455H126.457V634.12H248.931V416.455Z" fill="#446BE5"/>
<path opacity="0.4" d="M181.492 416.455H179.522V634.12H181.492V416.455Z" fill="#446BE5"/>
<path d="M697.315 634.12H124.685C123.047 634.12 121.72 635.447 121.72 637.085V646.252C121.72 647.889 123.047 649.217 124.685 649.217H697.315C698.952 649.217 700.28 647.889 700.28 646.252V637.085C700.28 635.447 698.952 634.12 697.315 634.12Z" fill="#263238"/>
<path d="M606.788 691.361C628.137 691.361 645.443 674.055 645.443 652.706C645.443 631.357 628.137 614.051 606.788 614.051C585.44 614.051 568.133 631.357 568.133 652.706C568.133 674.055 585.44 691.361 606.788 691.361Z" fill="#263238"/>
<path d="M606.788 677.584C620.528 677.584 631.666 666.446 631.666 652.706C631.666 638.966 620.528 627.828 606.788 627.828C593.048 627.828 581.91 638.966 581.91 652.706C581.91 666.446 593.048 677.584 606.788 677.584Z" fill="white"/>
<path d="M325.066 691.361C346.414 691.361 363.721 674.055 363.721 652.706C363.721 631.357 346.414 614.051 325.066 614.051C303.717 614.051 286.411 631.357 286.411 652.706C286.411 674.055 303.717 691.361 325.066 691.361Z" fill="#263238"/>
<path d="M325.066 677.584C338.806 677.584 349.944 666.446 349.944 652.706C349.944 638.966 338.806 627.828 325.066 627.828C311.326 627.828 300.188 638.966 300.188 652.706C300.188 666.446 311.326 677.584 325.066 677.584Z" fill="white"/>
<path d="M375.455 736.814L360.087 736.579L355.91 700.944L371.26 701.197L375.455 736.814Z" fill="#446BE5"/>
<path d="M359.689 734.807L376.431 735.061C376.727 735.059 377.013 735.167 377.233 735.364C377.454 735.561 377.593 735.833 377.624 736.127L379.089 749.832C379.117 750.179 379.072 750.528 378.956 750.857C378.841 751.185 378.659 751.486 378.42 751.74C378.182 751.993 377.893 752.194 377.572 752.33C377.251 752.465 376.906 752.532 376.558 752.526C370.537 752.327 361.841 751.839 354.247 751.73C345.37 751.586 346.238 751.947 335.824 751.73C329.532 751.64 328.592 745.222 331.231 744.697C343.526 742.256 344.755 742.13 355.856 735.892C357.016 735.199 358.338 734.825 359.689 734.807Z" fill="#263238"/>
<path d="M344.683 277.546C339.657 288.286 334.269 298.429 328.284 308.553C325.283 313.58 322.191 318.588 318.846 323.506C317.219 325.964 315.465 328.405 313.73 330.846C311.994 333.287 310.114 335.691 308.107 338.078L306.624 339.886C305.873 340.816 305.064 341.697 304.202 342.526C303.634 343.083 303.03 343.603 302.394 344.081C301.697 344.614 300.96 345.092 300.188 345.509C298.498 346.447 296.666 347.101 294.764 347.443C291.305 348.015 287.756 347.588 284.531 346.214C282.312 345.251 280.237 343.986 278.365 342.453C275.543 340.123 273.028 337.444 270.88 334.48C268.981 331.911 267.219 329.244 265.601 326.489C262.588 321.266 259.901 315.861 257.555 310.307C255.232 304.856 253.198 299.285 251.462 293.619C251.036 292.16 251.149 290.596 251.781 289.213C252.414 287.83 253.523 286.721 254.905 286.089C256.288 285.457 257.852 285.344 259.312 285.77C260.771 286.197 262.028 287.135 262.853 288.412L262.961 288.575C268.645 297.947 274.838 307 281.511 315.695C283.073 317.674 284.739 319.569 286.501 321.372C287.914 322.858 289.484 324.186 291.184 325.332C291.835 325.711 292.359 325.892 292.395 325.82C292.432 325.747 291.745 325.404 290.587 325.53C289.816 325.662 289.079 325.945 288.418 326.362C288.327 326.362 288.237 326.489 288.761 325.766L289.882 324.156C295.916 315.129 301.486 305.799 306.57 296.205C311.85 286.514 317.038 276.461 321.974 266.716V266.535C323.444 263.517 326.053 261.206 329.226 260.111C332.4 259.016 335.879 259.226 338.897 260.696C341.916 262.165 344.227 264.774 345.322 267.948C346.417 271.121 346.207 274.6 344.737 277.618L344.683 277.546Z" fill="#446BE5"/>
<path d="M263.449 292.896L259.327 275.792L243.254 282.717C243.254 282.717 244.682 296.295 255.91 297.977L263.449 292.896Z" fill="#263238"/>
<path d="M262.599 288.683C262.599 288.683 267.825 295.409 269.108 297.253C267.3 299.061 255.458 305.046 254.518 304.485C253.017 300.2 250.902 294.541 250.902 294.541L262.599 288.683Z" fill="#263238"/>
<path d="M247.304 264.908L241.392 270.585C240.924 271.047 240.591 271.628 240.428 272.265C240.266 272.902 240.28 273.572 240.469 274.201L243.254 282.645L259.327 275.72L252.728 265.505C252.433 265.08 252.051 264.723 251.606 264.458C251.162 264.194 250.666 264.028 250.152 263.971C249.638 263.914 249.117 263.969 248.626 264.131C248.135 264.292 247.684 264.557 247.304 264.908Z" fill="#263238"/>
<path d="M256.416 284.887C255.856 281.415 259.327 270.531 262.238 268.976C265.149 267.421 263.485 274.925 263.865 277.456C264.914 284.398 265.275 291.016 261.713 290.654C258.152 290.292 257.32 290.925 256.416 284.887Z" fill="#263238"/>
<path opacity="0.2" d="M355.91 700.962L358.062 719.331L373.43 719.566L371.278 701.197L355.91 700.962Z" fill="black"/>
<path d="M332.262 257.025C361.479 253.409 389.756 257.315 405.16 260.298C406.712 260.601 408.188 261.211 409.502 262.091C410.816 262.971 411.942 264.103 412.813 265.423C413.685 266.742 414.285 268.222 414.579 269.775C414.873 271.329 414.855 272.926 414.526 274.473C403.063 329.255 404.853 384.363 403.895 396.079L321.739 394.759C316.116 327.592 319.66 284.814 321.83 267.367C322.169 264.728 323.379 262.278 325.269 260.404C327.159 258.531 329.62 257.342 332.262 257.025Z" fill="#446BE5"/>
<path d="M384.151 218.298C381.548 229.345 378.583 249.703 386.176 257.767C379.848 263.371 371.604 269.772 358.243 269.247C344.882 268.723 347.557 259.755 351.264 255.181C363.92 253.12 363.92 243.827 362.112 234.968L384.151 218.298Z" fill="#FFB573"/>
<path opacity="0.2" d="M375.148 225.096L362.058 235.04C362.523 237.097 362.807 239.19 362.907 241.296C367.717 240.97 374.479 236.215 375.184 231.261C375.548 229.221 375.536 227.132 375.148 225.096Z" fill="black"/>
<path d="M387.876 201.538C385.941 216.635 385.598 225.584 377.407 232.798C365.113 243.646 346.834 235.311 344.194 219.907C341.826 206.022 345.37 183.747 360.629 178.721C364.008 177.63 367.608 177.414 371.093 178.093C374.577 178.772 377.833 180.324 380.555 182.603C383.277 184.883 385.376 187.815 386.656 191.127C387.937 194.438 388.356 198.02 387.876 201.538Z" fill="#FFB573"/>
<path d="M388.762 214.646C382.795 218.262 375.979 216.454 375.419 212.657C374.858 208.86 379.288 202.297 380.951 199.097C380.481 193.673 376.648 192.082 377.335 188.249C372.869 188.665 348.516 189.768 349.094 184.271C349.673 178.775 359.327 173.116 370.79 174.544C382.253 175.973 389.756 180.963 388.671 187.942C395.072 186.911 398.019 197.741 388.762 214.646Z" fill="#263238"/>
<path d="M394.095 216.96C393.084 218.566 391.764 219.955 390.212 221.047C388.661 222.14 386.908 222.914 385.055 223.324C380.101 224.391 377.823 219.889 379.469 215.369C380.897 211.283 385.2 205.823 390.082 206.781C391.144 207.002 392.135 207.485 392.964 208.184C393.794 208.883 394.437 209.778 394.835 210.788C395.233 211.797 395.374 212.89 395.245 213.967C395.116 215.045 394.721 216.073 394.095 216.96Z" fill="#FFB573"/>
<path d="M369.416 547.209C368.801 469.972 385.887 395.789 385.887 395.789L321.848 394.759C321.848 394.759 329.206 506.312 331.774 553.049C334.431 601.63 351.987 715.769 351.987 715.769L377.986 716.149C377.986 716.149 373.032 608.175 369.416 547.209Z" fill="#446BE5"/>
<path opacity="0.4" d="M369.416 547.209C368.801 469.972 385.887 395.789 385.887 395.789L321.848 394.759C321.848 394.759 329.206 506.312 331.774 553.049C334.431 601.63 351.987 715.769 351.987 715.769L377.986 716.149C377.986 716.149 373.032 608.175 369.416 547.209Z" fill="black"/>
<path opacity="0.2" d="M371.911 438.295C353.65 463.282 361.859 510.29 369.344 543.521C369.641 506.881 372.754 470.318 378.655 434.155L371.911 438.295Z" fill="black"/>
<path d="M348.516 705.644L350.197 716.239L378.944 716.727L380.571 706.711L348.516 705.644Z" fill="#263238"/>
<path d="M367.608 204.069C367.608 205.298 366.813 206.257 365.999 206.184C365.185 206.112 364.607 205.082 364.697 203.852C364.788 202.623 365.493 201.664 366.306 201.719C367.12 201.773 367.753 202.822 367.608 204.069Z" fill="#263238"/>
<path d="M351.68 202.279C351.68 203.527 350.884 204.467 350.071 204.413C349.257 204.358 348.678 203.292 348.769 202.062C348.859 200.833 349.564 199.874 350.378 199.929C351.192 199.983 351.77 201.05 351.68 202.279Z" fill="#263238"/>
<path d="M354.952 203.273C353.236 206.94 351.014 210.348 348.353 213.398C349.157 214.063 350.095 214.547 351.103 214.815C352.111 215.083 353.165 215.13 354.193 214.953L354.952 203.273Z" fill="#ED893E"/>
<path d="M359.219 219.328C360.609 219.26 361.97 218.904 363.215 218.281C364.46 217.659 365.562 216.784 366.451 215.712C366.509 215.636 366.533 215.539 366.52 215.444C366.506 215.349 366.455 215.264 366.379 215.206C366.302 215.149 366.206 215.124 366.111 215.138C366.016 215.151 365.93 215.202 365.873 215.279C364.855 216.43 363.579 217.322 362.148 217.882C360.718 218.441 359.174 218.652 357.646 218.497C357.591 218.484 357.533 218.485 357.478 218.498C357.422 218.511 357.371 218.536 357.326 218.571C357.282 218.607 357.246 218.652 357.221 218.703C357.197 218.754 357.184 218.811 357.184 218.867C357.184 218.924 357.197 218.98 357.221 219.032C357.246 219.083 357.282 219.128 357.326 219.164C357.371 219.199 357.422 219.224 357.478 219.237C357.533 219.25 357.591 219.25 357.646 219.238C358.168 219.303 358.693 219.333 359.219 219.328Z" fill="#263238"/>
<path d="M370.212 199.929C370.334 199.927 370.454 199.889 370.555 199.82C370.635 199.767 370.704 199.699 370.758 199.619C370.811 199.54 370.849 199.45 370.867 199.356C370.886 199.261 370.885 199.164 370.866 199.07C370.846 198.976 370.808 198.887 370.754 198.808C370.147 197.819 369.311 196.99 368.317 196.393C367.323 195.795 366.199 195.445 365.041 195.373C364.849 195.373 364.665 195.449 364.529 195.584C364.394 195.72 364.318 195.904 364.318 196.096C364.318 196.292 364.396 196.481 364.535 196.62C364.674 196.759 364.862 196.837 365.059 196.837C365.971 196.913 366.853 197.203 367.632 197.684C368.411 198.165 369.065 198.822 369.543 199.603C369.614 199.713 369.714 199.801 369.832 199.859C369.95 199.916 370.081 199.94 370.212 199.929Z" fill="#263238"/>
<path d="M344.827 196.548C344.944 196.565 345.063 196.552 345.174 196.511C345.284 196.47 345.383 196.402 345.46 196.313C346.036 195.604 346.773 195.044 347.61 194.679C348.446 194.314 349.358 194.155 350.269 194.215C350.461 194.236 350.652 194.182 350.804 194.064C350.956 193.946 351.056 193.773 351.083 193.583C351.096 193.488 351.089 193.391 351.064 193.298C351.039 193.206 350.996 193.119 350.937 193.043C350.878 192.968 350.805 192.904 350.721 192.857C350.638 192.81 350.545 192.78 350.45 192.769C349.302 192.684 348.15 192.874 347.091 193.324C346.031 193.774 345.094 194.47 344.357 195.354C344.236 195.501 344.178 195.69 344.195 195.879C344.211 196.069 344.302 196.244 344.448 196.367C344.55 196.469 344.684 196.533 344.827 196.548Z" fill="#263238"/>
<path d="M456.851 736.814L441.465 736.579L435.137 700.944L450.523 701.197L456.851 736.814Z" fill="#446BE5"/>
<path d="M440.633 734.807L457.375 735.061C457.674 735.062 457.962 735.17 458.188 735.366C458.414 735.562 458.561 735.832 458.605 736.127L460.539 749.832C460.584 750.173 460.554 750.52 460.452 750.849C460.349 751.177 460.177 751.48 459.947 751.736C459.717 751.992 459.434 752.195 459.118 752.331C458.802 752.468 458.461 752.534 458.117 752.526C452.078 752.327 450.179 751.839 442.586 751.73C433.691 751.586 437.813 751.947 427.381 751.73C421.089 751.64 419.859 745.258 422.535 744.697C430.997 742.889 433.112 739.508 436.836 735.892C437.912 735.05 439.275 734.66 440.633 734.807Z" fill="#263238"/>
<path d="M443.833 736.416C441.176 736.507 439.747 736.416 439.06 735.205C438.373 733.994 435.969 730.468 436.149 729.148C436.33 727.828 447.124 726.744 448.191 728.877C449.257 731.011 449.257 736.272 443.833 736.416Z" fill="#263238"/>
<path d="M359.11 736.417C357.447 736.507 356.561 736.417 356.163 735.205C355.337 733.268 354.766 731.232 354.464 729.148C354.59 727.81 361.37 726.744 362.003 728.877C362.636 731.011 362.491 736.272 359.11 736.417Z" fill="#263238"/>
<path opacity="0.2" d="M435.137 700.962L438.409 719.331L453.796 719.566L450.523 701.197L435.137 700.962Z" fill="black"/>
<path d="M430.545 538.079C423.313 468.507 414.815 411.519 403.931 396.079L349.528 395.211C349.528 395.211 381.258 504.342 393.481 550.337C406.137 598.159 431.105 711.141 431.105 711.141L455.875 711.484C455.875 711.484 445.623 592.427 430.545 538.079Z" fill="#446BE5"/>
<path opacity="0.4" d="M430.545 538.079C423.313 468.507 414.815 411.519 403.931 396.079L349.528 395.211C349.528 395.211 381.258 504.342 393.481 550.337C406.137 598.159 431.105 711.141 431.105 711.141L455.875 711.484C455.875 711.484 445.623 592.427 430.545 538.079Z" fill="black"/>
<path d="M427.995 705.644L430.002 716.239L457.809 716.727L459.039 706.711L427.995 705.644Z" fill="#263238"/>
<path d="M367.916 280.421C367.753 276.552 363.305 271.381 360.412 269.266C381.837 263.353 385.851 255.579 385.851 255.579C387.391 255.979 388.869 256.588 390.244 257.387C391.51 269.392 376.648 277.655 367.916 280.421Z" fill="white"/>
<path d="M355.277 268.958C350.472 271.194 346.529 274.94 344.05 279.625C335.136 263.715 347.666 254.53 347.666 254.53C349.053 254.139 350.506 254.04 351.933 254.241C349.528 259.556 352.294 266.553 355.277 268.958Z" fill="white"/>
<path d="M482.468 287.348L346.37 308.393L361.621 407.022L497.719 385.977L482.468 287.348Z" fill="#446BE5"/>
<path opacity="0.9" d="M482.468 287.348L346.37 308.393L361.621 407.022L497.719 385.977L482.468 287.348Z" fill="white"/>
<path opacity="0.2" d="M482.479 287.339L411.527 298.31L426.778 396.939L497.73 385.968L482.479 287.339Z" fill="#446BE5"/>
<path opacity="0.3" d="M383.278 375.887L366.197 378.528L368.772 395.181L385.853 392.539L383.278 375.887Z" fill="#446BE5"/>
<path opacity="0.3" d="M380.085 355.227L363.004 357.869L365.579 374.521L382.66 371.88L380.085 355.227Z" fill="#446BE5"/>
<path opacity="0.5" d="M390.239 301.616L366.153 305.34L367.438 313.648L391.524 309.924L390.239 301.616Z" fill="#446BE5"/>
<path opacity="0.5" d="M465.574 289.947L448.654 292.564L449.939 300.872L466.859 298.256L465.574 289.947Z" fill="#446BE5"/>
<path d="M409.608 262.16C420.041 267.144 430.101 272.872 439.711 279.3C444.757 282.606 449.589 286.229 454.175 290.148C456.689 292.322 459.056 294.659 461.263 297.145C462.526 298.609 463.692 300.156 464.752 301.773C466.12 303.827 467.197 306.06 467.952 308.409C468.47 310.001 468.774 311.654 468.856 313.326C468.882 313.615 468.882 313.906 468.856 314.194V314.809V316.056L468.766 318.552L468.549 320.884C468.404 322.439 468.241 323.994 467.988 325.458C467.735 326.923 467.572 328.441 467.283 329.87C466.325 335.709 464.915 341.26 463.505 346.792C460.565 357.754 456.942 368.52 452.657 379.029C452.083 380.448 451.013 381.61 449.647 382.299C448.281 382.987 446.711 383.156 445.229 382.774C443.747 382.391 442.455 381.483 441.593 380.219C440.731 378.955 440.358 377.42 440.543 375.901V375.757C441.827 364.909 443.4 353.952 444.539 343.213C445.171 337.789 445.66 332.491 445.985 327.302C446.093 326 446.093 324.753 446.166 323.469C446.238 322.186 446.166 320.956 446.166 319.745V317.937V316.273V315.442V315.026C446.166 315.026 446.166 314.61 446.166 314.845C446.151 315.134 446.151 315.424 446.166 315.713C446.166 315.912 445.967 315.514 445.533 315.026C444.973 314.382 444.368 313.778 443.725 313.218C442.136 311.668 440.451 310.218 438.681 308.879C434.848 305.968 430.545 303.111 426.115 300.381C417.238 294.957 407.692 289.75 398.38 284.814H398.254C395.363 283.246 393.196 280.614 392.212 277.475C391.228 274.337 391.504 270.939 392.983 268.001C394.461 265.063 397.025 262.815 400.132 261.735C403.239 260.655 406.644 260.827 409.626 262.214L409.608 262.16Z" fill="#446BE5"/>
<path d="M441.863 373.009L432.642 385.52L450.143 391.92C450.143 391.92 457.122 379.572 451.156 374.817L441.863 373.009Z" fill="#263238"/>
<path d="M434.956 401.503L441.465 402.714C442.719 402.936 444.011 402.71 445.115 402.076C446.219 401.441 447.065 400.438 447.504 399.243L450.143 392.011L432.696 385.52L430.707 395.12C430.425 396.53 430.714 397.994 431.511 399.191C432.308 400.388 433.547 401.219 434.956 401.503Z" fill="#263238"/>
<path d="M440.344 376.48C440.344 376.48 440.669 367.964 440.886 365.74C443.436 365.578 456.345 368.561 456.67 369.61C455.079 373.876 453.054 379.554 453.054 379.554L440.344 376.48Z" fill="#263238"/>
<path d="M396.193 198.88C387.46 197.904 351.589 189.171 348.262 185.718C348.027 179.046 351.878 172.302 354.247 170.784C360.846 166.445 375.364 166.282 379.975 167.584C384.585 168.885 397.205 175.304 399.302 181.487C400.93 186.387 396.193 198.88 396.193 198.88Z" fill="#446BE5"/>
<path d="M359.978 183.639C348.968 181.921 338.499 182.68 334.793 188.249C330.653 194.469 344.285 185.23 352.421 189.207C366.035 195.897 362.799 196.946 383.428 196.439C372.815 191.051 372.743 185.627 359.978 183.639Z" fill="#446BE5"/>
<path opacity="0.6" d="M359.978 183.639C348.968 181.921 338.499 182.68 334.793 188.249C330.653 194.469 344.285 185.23 352.421 189.207C366.035 195.897 362.799 196.946 383.428 196.439C372.815 191.051 372.743 185.627 359.978 183.639Z" fill="white"/>
<path d="M384.531 209.529C384.748 209.373 384.896 209.138 384.943 208.875C384.99 208.612 384.933 208.341 384.784 208.119C384.628 207.901 384.392 207.754 384.128 207.71C383.863 207.666 383.592 207.728 383.374 207.884C379.599 210.489 376.081 213.45 372.869 216.725C368.928 212.621 357.845 208.3 352.041 208.39C347.901 208.39 345.153 208.191 342.061 211.247C339.421 213.832 341.609 227.519 343.272 231.388C344.232 233.51 345.659 235.388 347.447 236.882C349.235 238.375 351.337 239.445 353.596 240.012C359.707 241.115 372.761 241.82 373.303 232.889C373.417 230.883 373.677 228.889 374.081 226.922C374.947 227.07 375.824 227.149 376.702 227.157C379.346 227.215 381.932 226.38 384.043 224.789C384.149 224.709 384.237 224.609 384.304 224.494C384.37 224.38 384.413 224.253 384.43 224.122C384.447 223.99 384.437 223.857 384.402 223.729C384.366 223.602 384.306 223.482 384.224 223.378C384.142 223.272 384.04 223.183 383.924 223.116C383.808 223.05 383.68 223.007 383.547 222.99C383.414 222.973 383.28 222.983 383.15 223.018C383.021 223.054 382.901 223.115 382.795 223.198C381.607 224.039 380.262 224.633 378.839 224.944C377.416 225.254 375.946 225.275 374.515 225.006C375.093 222.366 375.383 220.666 374.099 218.461C377.269 215.143 380.764 212.15 384.531 209.529Z" fill="#446BE5"/>
<path opacity="0.6" d="M384.531 209.529C384.748 209.373 384.896 209.138 384.943 208.875C384.99 208.612 384.933 208.341 384.784 208.119C384.628 207.901 384.392 207.754 384.128 207.71C383.863 207.666 383.592 207.728 383.374 207.884C379.599 210.489 376.081 213.45 372.869 216.725C368.928 212.621 357.845 208.3 352.041 208.39C347.901 208.39 345.153 208.191 342.061 211.247C339.421 213.832 341.609 227.519 343.272 231.388C344.232 233.51 345.659 235.388 347.447 236.882C349.235 238.375 351.337 239.445 353.596 240.012C359.707 241.115 372.761 241.82 373.303 232.889C373.417 230.883 373.677 228.889 374.081 226.922C374.947 227.07 375.824 227.149 376.702 227.157C379.346 227.215 381.932 226.38 384.043 224.789C384.149 224.709 384.237 224.609 384.304 224.494C384.37 224.38 384.413 224.253 384.43 224.122C384.447 223.99 384.437 223.857 384.402 223.729C384.366 223.602 384.306 223.482 384.224 223.378C384.142 223.272 384.04 223.183 383.924 223.116C383.808 223.05 383.68 223.007 383.547 222.99C383.414 222.973 383.28 222.983 383.15 223.018C383.021 223.054 382.901 223.115 382.795 223.198C381.607 224.039 380.262 224.633 378.839 224.944C377.416 225.254 375.946 225.275 374.515 225.006C375.093 222.366 375.383 220.666 374.099 218.461C377.269 215.143 380.764 212.15 384.531 209.529Z" fill="white"/>
</svg>
