<svg width="163" height="163" viewBox="0 0 163 163" fill="none" xmlns="http://www.w3.org/2000/svg">
<path fill-rule="evenodd" clip-rule="evenodd" d="M10.9329 82.0451V83.3776C10.9748 83.6216 11.0144 83.8658 11.0539 84.1097C11.2755 85.4773 11.4961 86.8386 12.127 88.1245C13.185 90.2621 14.5928 92.2099 16.2926 93.8881C19.9811 97.5737 23.6765 101.252 27.379 104.924C29.4007 106.929 31.4161 108.94 33.4314 110.951L33.4324 110.952L33.4351 110.955L33.4356 110.955L33.4359 110.955C37.2022 114.714 40.9685 118.472 44.776 122.19C45.3087 122.761 45.8765 123.296 46.4443 123.831L46.4445 123.832C46.9796 124.336 47.5147 124.841 48.0202 125.375C49.0341 126.447 50.0868 127.481 51.1389 128.514L51.3418 128.713C51.4835 128.853 51.6252 128.992 51.7666 129.131C53.0536 130.393 54.3326 131.661 55.6036 132.935C55.8852 133.218 56.1668 133.5 56.4484 133.783L56.4581 133.793L56.4678 133.802L56.469 133.804L56.4729 133.807C57.4324 134.771 58.3924 135.734 59.3575 136.69C60.089 137.415 60.8232 138.138 61.5572 138.862L61.5667 138.871C62.0905 139.387 62.6143 139.903 63.1371 140.42C64.4 141.668 65.6569 142.922 66.9138 144.177L66.916 144.179L66.9193 144.182C67.6277 144.889 68.3362 145.596 69.0458 146.302C69.1585 146.433 69.2959 146.54 69.4503 146.618C69.7175 146.736 69.9288 146.951 70.0398 147.22C70.2025 147.488 70.451 147.694 70.7454 147.805C71.2056 148.155 71.699 148.455 72.1922 148.755C72.6478 149.033 73.1032 149.31 73.5324 149.626C74.9361 150.303 76.3678 150.908 77.9435 151.045C79.7096 151.205 81.4853 151.235 83.256 151.134C83.4605 151.122 83.666 151.114 83.8717 151.106L83.8725 151.105L83.8733 151.105C84.6786 151.073 85.4875 151.041 86.26 150.75C86.5911 150.53 86.9611 150.407 87.3311 150.283C87.5073 150.224 87.6835 150.165 87.8555 150.095C88.4577 149.897 89.0373 149.637 89.5848 149.318C89.768 149.136 89.9875 148.994 90.2291 148.901C90.4648 148.794 90.6847 148.656 90.8829 148.49C91.7248 147.942 92.5024 147.302 93.2011 146.581C93.4106 146.438 93.6008 146.268 93.767 146.076C99.0991 140.773 104.427 135.466 109.749 130.154C111.952 127.955 114.16 125.762 116.369 123.57C119.901 120.061 123.434 116.553 126.944 113.023C127.036 112.847 127.183 112.723 127.33 112.599C127.45 112.497 127.57 112.396 127.66 112.266L127.663 112.262C127.806 112.055 127.972 111.814 127.795 111.573C127.619 111.331 127.393 111.432 127.172 111.53C127.151 111.539 127.13 111.548 127.109 111.557C126.977 111.614 126.843 111.667 126.709 111.719L126.709 111.719L126.709 111.719C126.459 111.816 126.209 111.913 125.97 112.042C122.833 113.739 119.623 115.287 116.399 116.815C108.88 120.377 101.026 123.043 93.1369 125.62C105.288 121.44 116.544 115.453 127.288 108.431C127.527 108.311 127.75 108.162 127.953 107.989C128.401 107.602 128.896 107.272 129.426 107.009C129.536 106.941 129.637 106.862 129.729 106.772C130.051 106.467 130.429 106.246 130.807 106.025L130.807 106.025C131.092 105.858 131.378 105.691 131.639 105.488C134.465 103.481 137.272 101.451 139.946 99.2436C140.241 98.9382 140.569 98.6652 140.923 98.4295C141.163 98.2537 141.383 98.0534 141.581 97.8318C141.723 97.6516 141.91 97.5283 142.097 97.4049C142.225 97.3205 142.353 97.2361 142.466 97.1334C142.57 97.0621 142.666 96.979 142.75 96.8859C143.01 96.6202 143.297 96.3824 143.607 96.1762C143.673 96.1236 143.734 96.0654 143.79 96.0024C143.961 95.8395 144.149 95.6963 144.338 95.5531L144.338 95.5529L144.338 95.5528C144.558 95.3853 144.778 95.2177 144.972 95.0186C145.07 94.9318 145.163 94.8387 145.249 94.7398C145.756 94.1785 146.303 93.6539 146.885 93.1702C147.017 93.081 147.138 92.9773 147.246 92.8612C151.49 88.3959 152.909 83.1368 151.604 77.1627C150.935 74.0968 149.538 71.3839 147.229 69.1874C146.792 68.7686 146.37 68.336 145.948 67.9034L145.947 67.903L145.947 67.9026C145.638 67.5862 145.329 67.2699 145.015 66.9591C141.12 63.0827 137.222 59.2084 133.323 55.3359C129.606 51.6415 125.89 47.9458 122.176 44.2486C118.234 40.3292 114.295 36.4074 110.358 32.4829C109.342 31.4696 108.327 30.4543 107.312 29.4391L107.312 29.4388C104.577 26.7025 101.842 23.9662 99.0718 21.2657C98.3098 20.5229 97.5678 19.7578 96.8256 18.9927L96.8256 18.9926C94.6308 16.7298 92.435 14.4658 89.7196 12.7728C87.303 11.3454 84.6604 10.8745 81.8896 10.9449H80.7024C76.4244 10.7856 72.6979 12.226 69.7023 15.1801C58.5728 26.2179 47.4572 37.2692 36.3555 48.3339C36.0462 48.7152 35.7106 49.0746 35.351 49.4094C35.0784 49.6697 34.8121 49.9332 35.0703 50.3502C35.5244 50.6096 35.9181 50.3906 36.2971 50.1763C36.9542 49.8046 37.6331 49.4774 38.3119 49.1503C38.4177 49.0993 38.5234 49.0484 38.6291 48.9972C39.8496 48.2506 41.1427 47.6482 42.4361 47.0458L42.4362 47.0457L42.4367 47.0455C42.9836 46.7907 43.5305 46.536 44.072 46.2703C52.8067 41.9841 61.978 38.8408 71.2192 35.8755C70.7525 36.0283 70.285 36.1785 69.8178 36.3282C62.3923 38.7067 55.4441 42.1543 48.5554 45.7277C45.0611 47.5403 41.6882 49.5699 38.3676 51.6834C37.2672 52.3175 36.2105 53.0192 35.154 53.7208C34.3445 54.2584 33.5351 54.7959 32.7061 55.3029C32.1225 55.9082 31.4248 56.3599 30.7271 56.8115C30.241 57.1263 29.7548 57.441 29.3072 57.8077C27.7873 58.8365 26.3314 59.9512 24.8754 61.0659L24.8752 61.0661C24.7085 61.1937 24.5418 61.3213 24.375 61.4488C23.9992 61.799 23.5999 62.1232 23.1799 62.4193C22.4501 62.9684 21.7561 63.5606 21.0704 64.1623C20.7864 64.4012 20.5013 64.639 20.2163 64.8769L20.216 64.8771L20.2157 64.8773C18.8119 66.0485 17.4079 67.2198 16.1237 68.5256C15.3802 69.2491 14.6833 70.0164 13.9867 70.7834L13.9867 70.7835L13.9713 70.8004C13.8367 70.9239 13.7383 71.0816 13.6869 71.2565C13.2447 71.9994 12.7871 72.7331 12.3249 73.463C11.4221 74.9766 11.2065 76.6675 10.9908 78.3585L10.9908 78.3585C10.9717 78.5087 10.9525 78.6588 10.9329 78.8089V79.7607C11.0909 80.514 11.0909 81.2917 10.9329 82.0451ZM72.5635 35.4374C72.74 35.3908 72.9144 35.3366 73.0888 35.2825L73.0889 35.2825L73.184 35.253L73.1724 35.2563C72.9686 35.314 72.7648 35.3718 72.5635 35.4374ZM73.6148 35.1277C73.7405 35.1271 73.8526 35.0762 73.9639 35.0257C74.0271 34.997 74.0899 34.9685 74.155 34.9493C74.0866 34.9686 74.0215 34.9982 73.9567 35.0277C73.8484 35.0769 73.7409 35.1258 73.6197 35.1262L73.6148 35.1277ZM74.346 34.9274L74.3489 34.9277C74.404 34.9093 74.3931 34.9133 74.381 34.9177C74.3682 34.9224 74.354 34.9276 74.4163 34.9069L74.4109 34.9079C74.4 34.9101 74.3894 34.9137 74.3778 34.9176C74.3681 34.9208 74.3578 34.9243 74.346 34.9274ZM90.1949 126.588C90.1535 126.597 90.1119 126.607 90.0703 126.616C89.9711 126.637 89.8719 126.659 89.7755 126.691C89.5313 126.799 89.2714 126.867 89.0056 126.893C88.6557 127.069 88.2824 127.193 87.8969 127.264L87.8823 127.269C88.2676 127.201 88.6408 127.078 88.9898 126.902C89.26 126.869 89.5243 126.799 89.7751 126.694C89.9166 126.665 90.0567 126.629 90.1949 126.588ZM87.8526 127.281C87.8124 127.298 87.7736 127.318 87.7365 127.341C87.7589 127.331 87.7804 127.319 87.8024 127.307L87.8025 127.307C87.8187 127.298 87.8352 127.289 87.8526 127.281ZM108.286 85.469L108.507 84.9061C108.495 84.5549 108.617 84.2123 108.85 83.9481C108.998 83.7335 109.078 83.4793 109.078 83.219C109.111 83.1167 109.133 83.0108 109.156 82.9048C109.206 82.6686 109.257 82.4325 109.424 82.2373C109.457 82.1232 109.483 82.0051 109.509 81.8871C109.57 81.6124 109.631 81.3378 109.772 81.1124C109.826 81.0248 109.821 80.9045 109.816 80.7864C109.806 80.5746 109.797 80.3699 110.134 80.3738C110.404 80.3769 110.472 80.5962 110.537 80.8057C110.559 80.8778 110.581 80.9486 110.611 81.0092C112.395 84.6487 114.172 88.2916 115.942 91.9379C115.956 91.9671 115.97 91.996 115.983 92.0245C116.116 92.3065 116.228 92.5454 116.657 92.5387C117.946 92.5184 119.236 92.5216 120.551 92.5249H120.552H120.553L121.274 92.5266C121.534 92.5271 121.796 92.5275 122.059 92.5275C122.02 92.3866 121.974 92.248 121.919 92.1122C118.131 84.3038 114.336 76.4985 110.534 68.6966C110.512 68.6525 110.496 68.6013 110.479 68.5489C110.426 68.3862 110.369 68.2117 110.152 68.2007C109.861 68.186 109.821 68.3984 109.785 68.5915C109.774 68.6478 109.764 68.7025 109.748 68.7494C109.017 70.8724 108.293 72.9982 107.57 75.1239C107.233 76.1139 106.896 77.104 106.559 78.0937C106.439 78.4445 106.311 78.7924 106.172 79.1702C106.104 79.3544 106.034 79.5458 105.96 79.748C105.886 79.6348 105.82 79.5363 105.76 79.4468C105.647 79.2782 105.555 79.142 105.472 79.0012C104.941 78.1083 104.412 77.2149 103.882 76.3215C102.471 73.9416 101.061 71.5617 99.6339 69.1914C99.5759 69.0951 99.5276 68.979 99.4783 68.8603C99.3252 68.4918 99.1618 68.0985 98.6638 68.195C98.2438 68.2764 98.2238 68.6586 98.2049 69.022V69.0221V69.0222C98.1982 69.1494 98.1917 69.2744 98.1681 69.3834C97.8462 70.8723 97.5466 72.366 97.247 73.8597L97.2468 73.8607C97.1357 74.4146 97.0246 74.9684 96.9123 75.522C95.8159 80.95 94.7139 86.3768 93.6063 91.8025C93.5074 92.2871 93.5239 92.5587 94.1592 92.5419C95.7197 92.5006 97.282 92.515 98.8434 92.5309C99.2695 92.5353 99.4442 92.4076 99.5232 91.9625C99.7298 90.7985 99.9666 89.6398 100.203 88.4811L100.204 88.4804C100.29 88.0579 100.376 87.6354 100.461 87.2126C100.721 85.9171 100.982 84.6216 101.253 83.2734L101.626 81.4187L105.584 87.2009C106.075 87.3206 106.225 87.6661 106.203 88.1256L106.206 88.1315C106.674 88.4738 106.976 88.2208 107.279 87.9677L107.279 87.9676C107.366 87.8948 107.453 87.8219 107.544 87.7633L107.543 87.7686C107.614 87.6781 107.614 87.5696 107.614 87.4647C107.614 87.3788 107.614 87.2953 107.653 87.2263C107.777 87.0071 107.802 86.7528 107.826 86.4989C107.863 86.1131 107.9 85.7282 108.286 85.469ZM77.8818 69.4061C77.8826 69.4306 77.8833 69.4551 77.8829 69.4791C77.8644 69.5478 77.8543 69.6205 77.8442 69.6932C77.8132 69.9169 77.7822 70.1406 77.5071 70.2459L77.5057 70.2501C77.4408 70.3386 77.4254 70.4512 77.4101 70.5637C77.3855 70.7434 77.361 70.923 77.1352 71.0047C76.2274 72.6829 75.3934 74.3967 74.6332 76.1459C74.6245 76.5441 74.5289 76.9355 74.353 77.2932C74.177 77.6508 73.925 77.966 73.6143 78.217L66.5577 92.5282C66.8703 92.5282 67.1667 92.5288 67.452 92.5294H67.4533H67.4545C68.0633 92.5306 68.6219 92.5318 69.1804 92.5267C69.4845 92.5239 69.8088 92.5514 70.1334 92.5789C70.8955 92.6436 71.6596 92.7084 72.1698 92.3822C72.7207 92.03 72.9929 91.2163 73.2547 90.4338L73.2548 90.4337C73.3354 90.1927 73.4151 89.9546 73.5015 89.734C73.7194 89.1781 74.0536 89.0766 74.5872 89.0835C75.1157 89.0902 75.6457 89.1069 76.1759 89.1235L76.1771 89.1236C77.6605 89.1703 79.1458 89.217 80.6044 89.0467C82.8382 88.786 84.143 89.4909 84.5976 91.6926C84.6578 91.873 84.7352 92.0473 84.8288 92.213C84.8539 92.3045 84.9091 92.385 84.9855 92.4417C85.0619 92.4985 85.1552 92.5281 85.2505 92.526C86.6438 92.5232 88.0372 92.5235 89.4914 92.5238L90.8711 92.5239C90.4768 91.7255 90.0905 90.9416 89.7091 90.1678L89.6957 90.1405L89.6941 90.1374C88.8587 88.4423 88.0472 86.7957 87.2291 85.1525C84.7132 80.1081 82.1969 75.0639 79.6801 70.02C79.4855 69.963 79.3087 69.8577 79.1663 69.714C79.0239 69.5704 78.9205 69.393 78.8659 69.1986C78.6874 68.6907 78.3734 68.7053 78.0415 69.0891C77.874 69.1486 77.8779 69.2771 77.8818 69.4056L77.8818 69.4061ZM79.4037 79.51L78.6148 77.6229C78.3341 78.2826 78.061 78.9264 77.7931 79.5583C77.0749 81.2516 76.3929 82.8597 75.6951 84.461C75.4731 84.9703 75.6482 85.061 76.1174 85.0574C77.772 85.0443 79.4266 85.0442 81.081 85.0569C81.5198 85.0602 81.6687 84.9221 81.4915 84.4995C80.8128 82.881 80.1359 81.2617 79.4185 79.5455L79.4115 79.5287L79.4037 79.51ZM49.2171 83.155C49.4633 82.6382 49.7094 82.1214 49.9529 81.6035C50.1183 81.4249 50.1705 81.1884 50.2227 80.952C50.2928 80.6341 50.363 80.3162 50.7082 80.1388L50.9824 79.5915C50.83 79.407 50.9392 79.3529 51.0484 79.2987C51.0985 79.2739 51.1485 79.2491 51.1734 79.2118L56.6787 68.162C56.149 68.162 55.6367 68.1654 55.1367 68.1687C53.9472 68.1765 52.8273 68.1838 51.709 68.1443C51.0104 68.1197 50.6575 68.3197 50.3474 68.9709C49.1723 71.4385 47.9775 73.8968 46.7827 76.3552C45.7263 78.5289 44.6699 80.7027 43.627 82.8828C43.345 83.4722 43.0466 84.0546 42.748 84.6371C41.9773 86.141 41.2062 87.6455 40.7184 89.2732C40.0702 91.4358 40.8779 92.5105 43.1404 92.5231C45.1741 92.5344 47.208 92.5322 49.2418 92.53C50.1079 92.529 50.9739 92.5281 51.84 92.5282C55.6322 92.5319 59.4243 92.5311 63.2164 92.5257C63.27 92.5256 63.3268 92.5294 63.3839 92.5331C63.6923 92.5536 64.0105 92.5747 63.8899 91.9967C63.2226 88.774 62.5615 85.55 61.9065 82.3248C61.8336 81.9658 61.6888 81.7982 61.2769 81.802C59.1101 81.8222 56.9431 81.8148 54.7762 81.8039C54.3763 81.8019 54.2017 81.879 54.3081 82.3414C54.5004 83.1419 54.6451 83.9529 54.7416 84.7702C54.8289 85.5795 55.1 86.0571 56.0256 85.8915C56.3236 85.8381 56.7253 85.7935 56.7704 86.25C56.7952 86.5014 56.8564 86.7485 56.9175 86.9952C57.0296 87.4476 57.1413 87.8989 57.0283 88.374C57.0164 88.4241 56.7997 88.4476 56.6784 88.447C55.9636 88.4437 55.2487 88.4427 54.5337 88.4417C52.5085 88.4388 50.4833 88.4359 48.4595 88.3804C47.3507 88.35 47.0549 87.8573 47.4819 86.8901C48.0361 85.6345 48.6266 84.3948 49.2171 83.155Z" fill="#446BE6"/>
</svg>
